<svg xmlns="http://www.w3.org/2000/svg" xmlns:xlink="http://www.w3.org/1999/xlink" xmlns:lucid="lucid" width="1358" height="849"><g transform="translate(-80 -2)" lucid:page-tab-id="0_0"><path d="M440 47.64a6 6 0 0 1 6-6h945.74a6 6 0 0 1 6 6v756.63a6 6 0 0 1-6 6H446a6 6 0 0 1-6-6z" stroke="#5e5e5e" stroke-width="3" fill="#fff"/><use xlink:href="#a" transform="matrix(1,0,0,1,448,49.641285978906495) translate(415.53703703703707 17.77777777777778)"/><use xlink:href="#b" transform="matrix(1,0,0,1,448,49.641285978906495) translate(479.7345679012346 17.77777777777778)"/><path d="M259.75 499.75c0 10.9-8.84 19.75-19.75 19.75-10.9 0-19.75-8.84-19.75-19.75 0-10.9 8.84-19.75 19.75-19.75 10.9 0 19.75 8.84 19.75 19.75z" stroke="#5e5e5e" stroke-width="3" fill="#fff"/><path d="M240 519.5v49.3a20.7 20.7 0 0 0 3.2 11.07L280 638m-40-63.2L200 638m0-98.75h80" stroke="#5e5e5e" stroke-width="3" fill="none"/><path d="M200 486a6 6 0 0 1 6-6h68a6 6 0 0 1 6 6v168a6 6 0 0 1-6 6h-68a6 6 0 0 1-6-6z" fill="none"/><use xlink:href="#c" transform="matrix(1,0,0,1,120,638) translate(81.82098765432099 17.77777777777778)"/><use xlink:href="#d" transform="matrix(1,0,0,1,120,638) translate(58.42592592592591 44.44444444444444)"/><path d="M786.7 514.62c0 33.14-55.8 60-124.65 60-68.85 0-124.67-26.86-124.67-60 0-33.13 55.82-60 124.67-60s124.66 26.87 124.66 60z" stroke="#5e5e5e" stroke-width="3" fill="#fff"/><use xlink:href="#e" transform="matrix(1,0,0,1,537.3799244324953,454.6231201639705) translate(51.605 63.15)"/><use xlink:href="#f" transform="matrix(1,0,0,1,537.3799244324953,454.6231201639705) translate(102.505 63.15)"/><path d="M1207.86 261.55c0 27.6-55.1 50-123.07 50-67.98 0-123.08-22.4-123.08-50 0-27.62 55.1-50 123.07-50 67.96 0 123.06 22.38 123.06 50z" stroke="#5e5e5e" stroke-width="3" fill="#fff"/><use xlink:href="#g" transform="matrix(1,0,0,1,961.7169146563408,211.54654022636527) translate(44.12999999999999 55.025)"/><use xlink:href="#h" transform="matrix(1,0,0,1,961.7169146563408,211.54654022636527) translate(121.98 55.025)"/><use xlink:href="#i" transform="matrix(1,0,0,1,961.7169146563408,211.54654022636527) translate(136.98000000000002 55.025)"/><path d="M1315.27 384.97c0 27.62-52.28 50-116.78 50s-116.78-22.38-116.78-50c0-27.6 52.28-50 116.77-50 64.5 0 116.77 22.4 116.77 50z" stroke="#5e5e5e" stroke-width="3" fill="#fff"/><use xlink:href="#j" transform="matrix(1,0,0,1,1081.7171771334672,334.9724645711373) translate(56.65500000000001 55.025)"/><use xlink:href="#k" transform="matrix(1,0,0,1,1081.7171771334672,334.9724645711373) translate(109.50500000000001 55.025)"/><path d="M1337.37 524.62c0 27.62-55.5 50-123.97 50s-123.97-22.38-123.97-50c0-27.6 55.5-50 123.97-50s123.97 22.4 123.97 50z" stroke="#5e5e5e" stroke-width="3" fill="#fff"/><use xlink:href="#l" transform="matrix(1,0,0,1,1089.426515531657,474.6231201639705) translate(40.154999999999994 55.025)"/><use xlink:href="#m" transform="matrix(1,0,0,1,1089.426515531657,474.6231201639705) translate(115.00500000000001 55.025)"/><use xlink:href="#k" transform="matrix(1,0,0,1,1089.426515531657,474.6231201639705) translate(140.005 55.025)"/><path d="M1256.13 680.74c0 27.62-41.5 50-92.67 50-51.18 0-92.67-22.38-92.67-50 0-27.6 41.48-50 92.66-50s92.67 22.4 92.67 50z" stroke="#5e5e5e" stroke-width="3" fill="#fff"/><use xlink:href="#n" transform="matrix(1,0,0,1,1070.7947905093731,630.7440799739645) translate(16.12999999999999 55.025)"/><use xlink:href="#h" transform="matrix(1,0,0,1,1070.7947905093731,630.7440799739645) translate(89.98 55.025)"/><use xlink:href="#i" transform="matrix(1,0,0,1,1070.7947905093731,630.7440799739645) translate(104.98 55.025)"/><path d="M281 537.66l253.88-22.95" stroke="#5e5e5e" stroke-width="2" fill="none"/><path d="M281.1 538.65l-1.1.1v-1h-3l-.08-.73 4-.36zM535.88 514.62v.66l.02.35-.95.08-.18-1.98 1.13-.1zM762.58 465.15l-7.13 7.3-1.43-1.4 7.13-7.3zm21.4-21.9l-14.27 14.6-1.42-1.4 14.26-14.58zm21.4-21.87l-14.27 14.6-1.43-1.4 14.27-14.6zm21.38-21.9l-14.26 14.6-1.43-1.4 14.26-14.58zm42.8-43.76l-14.27 14.6-1.44-1.4 14.26-14.6zm21.4-21.88l-14.28 14.6-1.43-1.4 14.27-14.6zm21.38-21.9l-14.26 14.6-1.43-1.4 14.26-14.6zm21.4-21.87l-14.27 14.6-1.43-1.4 14.27-14.6zm14.26-14.6l-7.13 7.3-1.43-1.4 7.13-7.3z" stroke="#5e5e5e" stroke-width=".05" fill="#5e5e5e"/><path d="M755.47 472.43l-.5.5-1.86-.95.94-.95z" fill="#5e5e5e"/><path d="M755.5 472.43l-.54.55-1.9-1 .97-1zm-2.35-.46l1.8.94.48-.47-1.4-1.37z" stroke="#5e5e5e" stroke-width=".05" fill="#5e5e5e"/><path d="M951.3 277.3l-6.63-6.48 13.28-6.96z" fill="#5e5e5e"/><path d="M951.58 278.98l-8.6-8.4 17.24-9.03zm-5.23-7.9l4.66 4.54 4.7-9.45z" stroke="#5e5e5e" stroke-width=".05" fill="#5e5e5e"/><use xlink:href="#o" transform="matrix(1,0,0,1,792.6429582044925,373.8543891311504) translate(0 14.222222222222223)"/><path d="M805.34 481.9l-9.46 3.3-.66-1.9 9.46-3.3zm28.37-9.9l-18.9 6.6-.66-1.9 18.9-6.6zm28.38-9.9l-18.9 6.6-.67-1.9 18.92-6.6zm28.38-9.9l-18.92 6.6-.66-1.88 18.92-6.6zm28.37-9.9l-18.92 6.6-.65-1.88 18.92-6.6zm9.45-3.28l-.6-1.74h5.57zm75.66-26.4l-9.5 3.33h-6.1l14.94-5.2zm28.38-9.88l-18.92 6.6-.66-1.9 18.92-6.6zm28.37-9.9l-18.93 6.6-.66-1.9 18.93-6.6zm18.9-6.6l-9.46 3.3-.65-1.88 9.44-3.3z" stroke="#5e5e5e" stroke-width=".05" fill="#5e5e5e"/><path d="M1080.24 383.97l-.02 1v.7l.03.35-.67.23-.66-1.88 1.32-.47z" fill="#5e5e5e"/><path d="M1080.26 383.97l-.02 1v.7l.03.37-.7.25-.68-1.95 1.37-.48zm-1.3.4l.63 1.85.62-.22-.02-.34v-1.7l.02-.02z" stroke="#5e5e5e" stroke-width=".05" fill="#5e5e5e"/><path d="M796.13 488.95l-15 .32 11.95-9.07z" fill="#5e5e5e"/><path d="M797.53 489.92l-19.45.42 15.5-11.77zm-13.34-1.7l10.54-.24-2.15-6.15z" stroke="#5e5e5e" stroke-width=".05" fill="#5e5e5e"/><use xlink:href="#p" transform="matrix(1,0,0,1,903.0994826182019,415.94997082992325) translate(0 14.222222222222223)"/><path d="M1086.96 523.6l-.07 2-10.38-.36.06-2zm-20.76-.7l-.06 2-20.76-.7.07-2zm-31.13-1.04l-.07 2-7.83-.26v-2zm-124.55-4.16l-.06 2-20.76-.7.07-2zm-31.13-1.04l-.08 2-20.76-.7.07-2zm-31.15-1.03l-.06 2-20.77-.7.07-2zm-31.13-1.04l-.07 2-10.38-.36.07-2z" stroke="#5e5e5e" stroke-width=".05" fill="#5e5e5e"/><path d="M1087.95 523.62l-.02 1v.47l.02.52-1.08-.03.06-2z" fill="#5e5e5e"/><path d="M1087.98 523.6l-.03 1.02v.47l.03.55-1.14-.04.07-2.04zm-1.1 1.96l1.05.04-.02-.5v-.48l.02-.97-.96-.03z" stroke="#5e5e5e" stroke-width=".05" fill="#5e5e5e"/><path d="M805.55 519.84l-14.1-5.1 14.4-4.17z" fill="#5e5e5e"/><path d="M806.5 521.25l-18.3-6.63 18.7-5.4zm-11.82-6.4l9.92 3.58.2-6.5z" stroke="#5e5e5e" stroke-width=".05" fill="#5e5e5e"/><g><use xlink:href="#p" transform="matrix(1,0,0,1,911.765911635617,510.0041130594124) translate(0 14.222222222222223)"/></g><path d="M1068.83 679.4l-.87 1.8-9.15-4.4.88-1.8zm-18.3-8.8l-.88 1.8-18.3-8.83.87-1.8zm-27.47-13.24l-.86 1.8-18.3-8.82.86-1.8zm-27.45-13.24l-.86 1.8-18.3-8.82.64-1.33h1.18zm-61.6-29.7h-4.6l-7.88-3.78.86-1.8zm-20.77-10l-.87 1.8-18.3-8.8.87-1.8zm-27.46-13.23l-.87 1.8-18.3-8.83.87-1.8zm-27.46-13.24l-.85 1.8-18.3-8.82.86-1.8zm-27.44-13.23l-.87 1.8-18.32-8.82.87-1.8zM803.4 551.5l-.87 1.8-9.15-4.4.86-1.8z" stroke="#5e5e5e" stroke-width=".05" fill="#5e5e5e"/><path d="M1069.32 679.65l-.03 1.08v.2l.03.94-1.4-.67.87-1.8z" fill="#5e5e5e"/><path d="M1069.35 679.63l-.03 1.1v.2l.03.98-1.45-.7.9-1.84zm-1.38 1.56l1.33.63-.03-.9v-.2l.03-1.07-.48-.23z" stroke="#5e5e5e" stroke-width=".05" fill="#5e5e5e"/><path d="M794.92 543.38l-4.02 8.35-10.84-10.37z" fill="#5e5e5e"/><path d="M796.42 542.57l-5.22 10.83-14.06-13.44zm-5.83 7.5l2.82-5.9-10.45-1.4z" stroke="#5e5e5e" stroke-width=".05" fill="#5e5e5e"/><g><use xlink:href="#p" transform="matrix(1,0,0,1,896.122645049818,614.4331172805686) translate(0 14.222222222222223)"/></g><defs><path fill="#333" d="M30-248c87 1 191-15 191 75 0 78-77 80-158 76V0H30v-248zm33 125c57 0 124 11 124-50 0-59-68-47-124-48v98" id="q"/><path fill="#333" d="M100-194c62-1 85 37 85 99 1 63-27 99-86 99S16-35 15-95c0-66 28-99 85-99zM99-20c44 1 53-31 53-75 0-43-8-75-51-75s-53 32-53 75 10 74 51 75" id="r"/><path fill="#333" d="M117-194c89-4 53 116 60 194h-32v-121c0-31-8-49-39-48C34-167 62-67 57 0H25l-1-190h30c1 10-1 24 2 32 11-22 29-35 61-36" id="s"/><path fill="#333" d="M59-47c-2 24 18 29 38 22v24C64 9 27 4 27-40v-127H5v-23h24l9-43h21v43h35v23H59v120" id="t"/><g id="a"><use transform="matrix(0.06172839506172839,0,0,0.06172839506172839,0,0)" xlink:href="#q"/><use transform="matrix(0.06172839506172839,0,0,0.06172839506172839,14.814814814814813,0)" xlink:href="#r"/><use transform="matrix(0.06172839506172839,0,0,0.06172839506172839,27.160493827160494,0)" xlink:href="#s"/><use transform="matrix(0.06172839506172839,0,0,0.06172839506172839,39.50617283950617,0)" xlink:href="#t"/><use transform="matrix(0.06172839506172839,0,0,0.06172839506172839,45.67901234567901,0)" xlink:href="#r"/></g><path fill="#333" d="M63-220v92h138v28H63V0H30v-248h175v28H63" id="u"/><path fill="#333" d="M141-36C126-15 110 5 73 4 37 3 15-17 15-53c-1-64 63-63 125-63 3-35-9-54-41-54-24 1-41 7-42 31l-33-3c5-37 33-52 76-52 45 0 72 20 72 64v82c-1 20 7 32 28 27v20c-31 9-61-2-59-35zM48-53c0 20 12 33 32 33 41-3 63-29 60-74-43 2-92-5-92 41zm25-158c8-23 27-35 38-54h36v5l-58 49H73" id="v"/><path fill="#333" d="M96-169c-40 0-48 33-48 73s9 75 48 75c24 0 41-14 43-38l32 2c-6 37-31 61-74 61-59 0-76-41-82-99-10-93 101-131 147-64 4 7 5 14 7 22l-32 3c-4-21-16-35-41-35" id="w"/><path fill="#333" d="M24-231v-30h32v30H24zM24 0v-190h32V0H24" id="x"/><path fill="#333" d="M24 0v-261h32V0H24" id="y"/><g id="b"><use transform="matrix(0.06172839506172839,0,0,0.06172839506172839,0,0)" xlink:href="#u"/><use transform="matrix(0.06172839506172839,0,0,0.06172839506172839,13.518518518518517,0)" xlink:href="#v"/><use transform="matrix(0.06172839506172839,0,0,0.06172839506172839,25.864197530864196,0)" xlink:href="#w"/><use transform="matrix(0.06172839506172839,0,0,0.06172839506172839,36.9753086419753,0)" xlink:href="#x"/><use transform="matrix(0.06172839506172839,0,0,0.06172839506172839,41.85185185185185,0)" xlink:href="#y"/></g><path fill="#333" d="M232-93c-1 65-40 97-104 97C67 4 28-28 28-90v-158h33c8 89-33 224 67 224 102 0 64-133 71-224h33v155" id="z"/><path fill="#333" d="M135-143c-3-34-86-38-87 0 15 53 115 12 119 90S17 21 10-45l28-5c4 36 97 45 98 0-10-56-113-15-118-90-4-57 82-63 122-42 12 7 21 19 24 35" id="A"/><path fill="#333" d="M84 4C-5 8 30-112 23-190h32v120c0 31 7 50 39 49 72-2 45-101 50-169h31l1 190h-30c-1-10 1-25-2-33-11 22-28 36-60 37" id="B"/><path fill="#333" d="M114-163C36-179 61-72 57 0H25l-1-190h30c1 12-1 29 2 39 6-27 23-49 58-41v29" id="C"/><g id="c"><use transform="matrix(0.06172839506172839,0,0,0.06172839506172839,0,0)" xlink:href="#z"/><use transform="matrix(0.06172839506172839,0,0,0.06172839506172839,15.987654320987653,0)" xlink:href="#A"/><use transform="matrix(0.06172839506172839,0,0,0.06172839506172839,27.098765432098766,0)" xlink:href="#B"/><use transform="matrix(0.06172839506172839,0,0,0.06172839506172839,39.44444444444444,0)" xlink:href="#v"/><use transform="matrix(0.06172839506172839,0,0,0.06172839506172839,51.79012345679012,0)" xlink:href="#C"/><use transform="matrix(0.06172839506172839,0,0,0.06172839506172839,59.1358024691358,0)" xlink:href="#x"/><use transform="matrix(0.06172839506172839,0,0,0.06172839506172839,64.01234567901234,0)" xlink:href="#r"/></g><path fill="#333" d="M87 75C49 33 22-17 22-94c0-76 28-126 65-167h31c-38 41-64 92-64 168S80 34 118 75H87" id="D"/><path fill="#333" d="M101-234c-31-9-42 10-38 44h38v23H63V0H32v-167H5v-23h27c-7-52 17-82 69-68v24" id="E"/><path fill="#333" d="M33-261c38 41 65 92 65 168S71 34 33 75H2C39 34 66-17 66-93S39-220 2-261h31" id="F"/><g id="d"><use transform="matrix(0.06172839506172839,0,0,0.06172839506172839,0,0)" xlink:href="#D"/><use transform="matrix(0.06172839506172839,0,0,0.06172839506172839,7.345679012345679,0)" xlink:href="#E"/><use transform="matrix(0.06172839506172839,0,0,0.06172839506172839,13.518518518518519,0)" xlink:href="#B"/><use transform="matrix(0.06172839506172839,0,0,0.06172839506172839,25.864197530864196,0)" xlink:href="#s"/><use transform="matrix(0.06172839506172839,0,0,0.06172839506172839,38.20987654320987,0)" xlink:href="#w"/><use transform="matrix(0.06172839506172839,0,0,0.06172839506172839,49.32098765432099,0)" xlink:href="#x"/><use transform="matrix(0.06172839506172839,0,0,0.06172839506172839,54.19753086419753,0)" xlink:href="#r"/><use transform="matrix(0.06172839506172839,0,0,0.06172839506172839,66.54320987654322,0)" xlink:href="#s"/><use transform="matrix(0.06172839506172839,0,0,0.06172839506172839,78.8888888888889,0)" xlink:href="#v"/><use transform="matrix(0.06172839506172839,0,0,0.06172839506172839,91.23456790123458,0)" xlink:href="#C"/><use transform="matrix(0.06172839506172839,0,0,0.06172839506172839,98.58024691358027,0)" xlink:href="#x"/><use transform="matrix(0.06172839506172839,0,0,0.06172839506172839,103.45679012345681,0)" xlink:href="#r"/><use transform="matrix(0.06172839506172839,0,0,0.06172839506172839,115.8024691358025,0)" xlink:href="#F"/></g><path d="M205 0l-28-72H64L36 0H1l101-248h38L239 0h-34zm-38-99l-47-123c-12 45-31 82-46 123h93" id="G"/><path d="M59-47c-2 24 18 29 38 22v24C64 9 27 4 27-40v-127H5v-23h24l9-43h21v43h35v23H59v120" id="H"/><path d="M24-231v-30h32v30H24zM24 0v-190h32V0H24" id="I"/><path d="M108 0H70L1-190h34L89-25l56-165h34" id="J"/><path d="M141-36C126-15 110 5 73 4 37 3 15-17 15-53c-1-64 63-63 125-63 3-35-9-54-41-54-24 1-41 7-42 31l-33-3c5-37 33-52 76-52 45 0 72 20 72 64v82c-1 20 7 32 28 27v20c-31 9-61-2-59-35zM48-53c0 20 12 33 32 33 41-3 63-29 60-74-43 2-92-5-92 41" id="K"/><path d="M114-163C36-179 61-72 57 0H25l-1-190h30c1 12-1 29 2 39 6-27 23-49 58-41v29" id="L"/><g id="e"><use transform="matrix(0.05,0,0,0.05,0,0)" xlink:href="#G"/><use transform="matrix(0.05,0,0,0.05,12,0)" xlink:href="#H"/><use transform="matrix(0.05,0,0,0.05,17,0)" xlink:href="#I"/><use transform="matrix(0.05,0,0,0.05,20.95,0)" xlink:href="#J"/><use transform="matrix(0.05,0,0,0.05,29.950000000000003,0)" xlink:href="#K"/><use transform="matrix(0.05,0,0,0.05,39.95,0)" xlink:href="#L"/></g><path d="M117-194c89-4 53 116 60 194h-32v-121c0-31-8-49-39-48C34-167 62-67 57 0H25l-1-190h30c1 10-1 24 2 32 11-22 29-35 61-36" id="M"/><path d="M100-194c62-1 85 37 85 99 1 63-27 99-86 99S16-35 15-95c0-66 28-99 85-99zM99-20c44 1 53-31 53-75 0-43-8-75-51-75s-53 32-53 75 10 74 51 75" id="N"/><path d="M101-234c-31-9-42 10-38 44h38v23H63V0H32v-167H5v-23h27c-7-52 17-82 69-68v24" id="O"/><path d="M96-169c-40 0-48 33-48 73s9 75 48 75c24 0 41-14 43-38l32 2c-6 37-31 61-74 61-59 0-76-41-82-99-10-93 101-131 147-64 4 7 5 14 7 22l-32 3c-4-21-16-35-41-35" id="P"/><path d="M96-169c-40 0-48 33-48 73s9 75 48 75c24 0 41-14 43-38l32 2c-6 37-31 61-74 61-59 0-76-41-82-99-10-93 101-131 147-64 4 7 5 14 7 22l-32 3c-4-21-16-35-41-35zm3 187c19-1 33 8 33 26 0 31-30 33-64 32V58c18 2 39 4 41-13 1-15-18-13-34-13L87 0h19" id="Q"/><path d="M100-194c62-1 85 37 85 99 1 63-27 99-86 99S16-35 15-95c0-66 28-99 85-99zM99-20c44 1 53-31 53-75 0-43-8-75-51-75s-53 32-53 75 10 74 51 75zm66-238c-3 23-9 48-36 47-26-1-65-44-74 0H39c4-23 8-48 36-47s64 44 74 0h16" id="R"/><path d="M100-194c63 0 86 42 84 106H49c0 40 14 67 53 68 26 1 43-12 49-29l28 8c-11 28-37 45-77 45C44 4 14-33 15-96c1-61 26-98 85-98zm52 81c6-60-76-77-97-28-3 7-6 17-6 28h103" id="S"/><path d="M135-143c-3-34-86-38-87 0 15 53 115 12 119 90S17 21 10-45l28-5c4 36 97 45 98 0-10-56-113-15-118-90-4-57 82-63 122-42 12 7 21 19 24 35" id="T"/><g id="f"><use transform="matrix(0.05,0,0,0.05,0,0)" xlink:href="#M"/><use transform="matrix(0.05,0,0,0.05,10,0)" xlink:href="#N"/><use transform="matrix(0.05,0,0,0.05,20,0)" xlink:href="#H"/><use transform="matrix(0.05,0,0,0.05,25,0)" xlink:href="#I"/><use transform="matrix(0.05,0,0,0.05,28.950000000000003,0)" xlink:href="#O"/><use transform="matrix(0.05,0,0,0.05,33.95,0)" xlink:href="#I"/><use transform="matrix(0.05,0,0,0.05,37.900000000000006,0)" xlink:href="#P"/><use transform="matrix(0.05,0,0,0.05,46.900000000000006,0)" xlink:href="#K"/><use transform="matrix(0.05,0,0,0.05,56.900000000000006,0)" xlink:href="#Q"/><use transform="matrix(0.05,0,0,0.05,65.9,0)" xlink:href="#R"/><use transform="matrix(0.05,0,0,0.05,75.9,0)" xlink:href="#S"/><use transform="matrix(0.05,0,0,0.05,85.9,0)" xlink:href="#T"/></g><path d="M212-179c-10-28-35-45-73-45-59 0-87 40-87 99 0 60 29 101 89 101 43 0 62-24 78-52l27 14C228-24 195 4 139 4 59 4 22-46 18-125c-6-104 99-153 187-111 19 9 31 26 39 46" id="U"/><path d="M210-169c-67 3-38 105-44 169h-31v-121c0-29-5-50-35-48C34-165 62-65 56 0H25l-1-190h30c1 10-1 24 2 32 10-44 99-50 107 0 11-21 27-35 58-36 85-2 47 119 55 194h-31v-121c0-29-5-49-35-48" id="V"/><g id="g"><use transform="matrix(0.05,0,0,0.05,0,0)" xlink:href="#U"/><use transform="matrix(0.05,0,0,0.05,12.950000000000001,0)" xlink:href="#N"/><use transform="matrix(0.05,0,0,0.05,22.950000000000003,0)" xlink:href="#V"/><use transform="matrix(0.05,0,0,0.05,37.900000000000006,0)" xlink:href="#S"/><use transform="matrix(0.05,0,0,0.05,47.900000000000006,0)" xlink:href="#Q"/><use transform="matrix(0.05,0,0,0.05,56.900000000000006,0)" xlink:href="#K"/><use transform="matrix(0.05,0,0,0.05,66.9,0)" xlink:href="#L"/></g><use transform="matrix(0.05,0,0,0.05,0,0)" xlink:href="#N" id="h"/><path d="M115-194c53 0 69 39 70 98 0 66-23 100-70 100C84 3 66-7 56-30L54 0H23l1-261h32v101c10-23 28-34 59-34zm-8 174c40 0 45-34 45-75 0-40-5-75-45-74-42 0-51 32-51 76 0 43 10 73 51 73" id="W"/><path d="M24 0v-261h32V0H24" id="X"/><path d="M106-169C34-169 62-67 57 0H25v-261h32l-1 103c12-21 28-36 61-36 89 0 53 116 60 194h-32v-121c2-32-8-49-39-48" id="Y"/><g id="i"><use transform="matrix(0.05,0,0,0.05,0,0)" xlink:href="#H"/><use transform="matrix(0.05,0,0,0.05,5,0)" xlink:href="#L"/><use transform="matrix(0.05,0,0,0.05,10.95,0)" xlink:href="#K"/><use transform="matrix(0.05,0,0,0.05,20.95,0)" xlink:href="#W"/><use transform="matrix(0.05,0,0,0.05,30.950000000000003,0)" xlink:href="#K"/><use transform="matrix(0.05,0,0,0.05,40.95,0)" xlink:href="#X"/><use transform="matrix(0.05,0,0,0.05,44.900000000000006,0)" xlink:href="#Y"/><use transform="matrix(0.05,0,0,0.05,54.900000000000006,0)" xlink:href="#N"/></g><path d="M33 0v-248h34V0H33" id="Z"/><g id="j"><use transform="matrix(0.05,0,0,0.05,0,0)" xlink:href="#Z"/><use transform="matrix(0.05,0,0,0.05,5,0)" xlink:href="#M"/><use transform="matrix(0.05,0,0,0.05,15,0)" xlink:href="#I"/><use transform="matrix(0.05,0,0,0.05,18.95,0)" xlink:href="#P"/><use transform="matrix(0.05,0,0,0.05,27.950000000000003,0)" xlink:href="#I"/><use transform="matrix(0.05,0,0,0.05,31.899999999999995,0)" xlink:href="#K"/><use transform="matrix(0.05,0,0,0.05,41.9,0)" xlink:href="#L"/></g><g id="k"><use transform="matrix(0.05,0,0,0.05,0,0)" xlink:href="#I"/><use transform="matrix(0.05,0,0,0.05,3.95,0)" xlink:href="#M"/><use transform="matrix(0.05,0,0,0.05,13.949999999999998,0)" xlink:href="#H"/><use transform="matrix(0.05,0,0,0.05,18.95,0)" xlink:href="#S"/><use transform="matrix(0.05,0,0,0.05,28.950000000000003,0)" xlink:href="#L"/><use transform="matrix(0.05,0,0,0.05,34.9,0)" xlink:href="#J"/><use transform="matrix(0.05,0,0,0.05,43.9,0)" xlink:href="#K"/><use transform="matrix(0.05,0,0,0.05,53.900000000000006,0)" xlink:href="#X"/><use transform="matrix(0.05,0,0,0.05,57.85,0)" xlink:href="#N"/></g><path d="M233-177c-1 41-23 64-60 70L243 0h-38l-65-103H63V0H30v-248c88 3 205-21 203 71zM63-129c60-2 137 13 137-47 0-61-80-42-137-45v92" id="aa"/><g id="l"><use transform="matrix(0.05,0,0,0.05,0,0)" xlink:href="#aa"/><use transform="matrix(0.05,0,0,0.05,12.950000000000001,0)" xlink:href="#S"/><use transform="matrix(0.05,0,0,0.05,22.950000000000003,0)" xlink:href="#H"/><use transform="matrix(0.05,0,0,0.05,27.950000000000003,0)" xlink:href="#N"/><use transform="matrix(0.05,0,0,0.05,37.95,0)" xlink:href="#L"/><use transform="matrix(0.05,0,0,0.05,43.900000000000006,0)" xlink:href="#M"/><use transform="matrix(0.05,0,0,0.05,53.900000000000006,0)" xlink:href="#K"/><use transform="matrix(0.05,0,0,0.05,63.900000000000006,0)" xlink:href="#L"/></g><path d="M85-194c31 0 48 13 60 33l-1-100h32l1 261h-30c-2-10 0-23-3-31C134-8 116 4 85 4 32 4 16-35 15-94c0-66 23-100 70-100zm9 24c-40 0-46 34-46 75 0 40 6 74 45 74 42 0 51-32 51-76 0-42-9-74-50-73" id="ab"/><g id="m"><use transform="matrix(0.05,0,0,0.05,0,0)" xlink:href="#ab"/><use transform="matrix(0.05,0,0,0.05,10,0)" xlink:href="#N"/></g><path d="M30 0v-248h187v28H63v79h144v27H63v87h162V0H30" id="ac"/><g id="n"><use transform="matrix(0.05,0,0,0.05,0,0)" xlink:href="#ac"/><use transform="matrix(0.05,0,0,0.05,12,0)" xlink:href="#M"/><use transform="matrix(0.05,0,0,0.05,22,0)" xlink:href="#P"/><use transform="matrix(0.05,0,0,0.05,31,0)" xlink:href="#S"/><use transform="matrix(0.05,0,0,0.05,41,0)" xlink:href="#L"/><use transform="matrix(0.05,0,0,0.05,46.95,0)" xlink:href="#L"/><use transform="matrix(0.05,0,0,0.05,52.900000000000006,0)" xlink:href="#K"/><use transform="matrix(0.05,0,0,0.05,62.900000000000006,0)" xlink:href="#L"/></g><path fill="#333" d="M15-91v-56l181-69v40L49-119l147 57v40" id="ad"/><path fill="#333" d="M25-224v-37h50v37H25zM25 0v-190h50V0H25" id="ae"/><path fill="#333" d="M135-194c87-1 58 113 63 194h-50c-7-57 23-157-34-157-59 0-34 97-39 157H25l-1-190h47c2 12-1 28 3 38 12-26 28-41 61-42" id="af"/><path fill="#333" d="M190-63c-7 42-38 67-86 67-59 0-84-38-90-98-12-110 154-137 174-36l-49 2c-2-19-15-32-35-32-30 0-35 28-38 64-6 74 65 87 74 30" id="ag"/><path fill="#333" d="M25 0v-261h50V0H25" id="ah"/><path fill="#333" d="M85 4C-2 5 27-109 22-190h50c7 57-23 150 33 157 60-5 35-97 40-157h50l1 190h-47c-2-12 1-28-3-38-12 25-28 42-61 42" id="ai"/><path fill="#333" d="M135-150c-39-12-60 13-60 57V0H25l-1-190h47c2 13-1 29 3 40 6-28 27-53 61-41v41" id="aj"/><path fill="#333" d="M15-22v-40l146-57-146-57v-40l181 69v56" id="ak"/><g id="o"><use transform="matrix(0.04938271604938272,0,0,0.04938271604938272,0,0)" xlink:href="#ad"/><use transform="matrix(0.04938271604938272,0,0,0.04938271604938272,10.370370370370372,0)" xlink:href="#ad"/><use transform="matrix(0.04938271604938272,0,0,0.04938271604938272,20.740740740740744,0)" xlink:href="#ae"/><use transform="matrix(0.04938271604938272,0,0,0.04938271604938272,25.679012345679016,0)" xlink:href="#af"/><use transform="matrix(0.04938271604938272,0,0,0.04938271604938272,36.49382716049383,0)" xlink:href="#ag"/><use transform="matrix(0.04938271604938272,0,0,0.04938271604938272,46.370370370370374,0)" xlink:href="#ah"/><use transform="matrix(0.04938271604938272,0,0,0.04938271604938272,51.308641975308646,0)" xlink:href="#ai"/><use transform="matrix(0.04938271604938272,0,0,0.04938271604938272,62.12345679012346,0)" xlink:href="#ae"/><use transform="matrix(0.04938271604938272,0,0,0.04938271604938272,67.06172839506173,0)" xlink:href="#aj"/><use transform="matrix(0.04938271604938272,0,0,0.04938271604938272,73.97530864197532,0)" xlink:href="#ak"/><use transform="matrix(0.04938271604938272,0,0,0.04938271604938272,84.34567901234568,0)" xlink:href="#ak"/></g><path fill="#333" d="M185-48c-13 30-37 53-82 52C43 2 14-33 14-96s30-98 90-98c62 0 83 45 84 108H66c0 31 8 55 39 56 18 0 30-7 34-22zm-45-69c5-46-57-63-70-21-2 6-4 13-4 21h74" id="al"/><path fill="#333" d="M137-138c1-29-70-34-71-4 15 46 118 7 119 86 1 83-164 76-172 9l43-7c4 19 20 25 44 25 33 8 57-30 24-41C81-84 22-81 20-136c-2-80 154-74 161-7" id="am"/><path fill="#333" d="M115-3C79 11 28 4 28-45v-112H4v-33h27l15-45h31v45h36v33H77v99c-1 23 16 31 38 25v30" id="an"/><path fill="#333" d="M88-194c31-1 46 15 58 34l-1-101h50l1 261h-48c-2-10 0-23-3-31C134-8 116 4 84 4 32 4 16-41 15-95c0-56 19-97 73-99zm17 164c33 0 40-30 41-66 1-37-9-64-41-64s-38 30-39 65c0 43 13 65 39 65" id="ao"/><g id="p"><use transform="matrix(0.04938271604938272,0,0,0.04938271604938272,0,0)" xlink:href="#ad"/><use transform="matrix(0.04938271604938272,0,0,0.04938271604938272,10.370370370370372,0)" xlink:href="#ad"/><use transform="matrix(0.04938271604938272,0,0,0.04938271604938272,20.740740740740744,0)" xlink:href="#al"/><use transform="matrix(0.04938271604938272,0,0,0.04938271604938272,30.617283950617285,0)" xlink:href="#am"/><use transform="matrix(0.04938271604938272,0,0,0.04938271604938272,40.49382716049384,0)" xlink:href="#an"/><use transform="matrix(0.04938271604938272,0,0,0.04938271604938272,46.37037037037038,0)" xlink:href="#al"/><use transform="matrix(0.04938271604938272,0,0,0.04938271604938272,56.24691358024693,0)" xlink:href="#af"/><use transform="matrix(0.04938271604938272,0,0,0.04938271604938272,67.06172839506173,0)" xlink:href="#ao"/><use transform="matrix(0.04938271604938272,0,0,0.04938271604938272,77.87654320987654,0)" xlink:href="#al"/><use transform="matrix(0.04938271604938272,0,0,0.04938271604938272,87.75308641975309,0)" xlink:href="#aj"/><use transform="matrix(0.04938271604938272,0,0,0.04938271604938272,94.66666666666667,0)" xlink:href="#ak"/><use transform="matrix(0.04938271604938272,0,0,0.04938271604938272,105.03703703703705,0)" xlink:href="#ak"/></g></defs></g></svg>