<svg xmlns="http://www.w3.org/2000/svg" xmlns:xlink="http://www.w3.org/1999/xlink" xmlns:lucid="lucid" width="1217.2" height="527.76"><g transform="translate(-157.42592592592592 -223.11705778045916)" lucid:page-tab-id="0_0"><path d="M440 249.12a6 6 0 0 1 6-6h902.62a6 6 0 0 1 6 6v475.76a6 6 0 0 1-6 6H446a6 6 0 0 1-6-6z" stroke="#5e5e5e" stroke-width="3" fill="#fff"/><use xlink:href="#a" transform="matrix(1,0,0,1,448,251.11705778045916) translate(394.03703703703707 17.77777777777778)"/><use xlink:href="#b" transform="matrix(1,0,0,1,448,251.11705778045916) translate(458.2345679012346 17.77777777777778)"/><path d="M259.75 499.75c0 10.9-8.84 19.75-19.75 19.75-10.9 0-19.75-8.84-19.75-19.75 0-10.9 8.84-19.75 19.75-19.75 10.9 0 19.75 8.84 19.75 19.75z" stroke="#5e5e5e" stroke-width="3" fill="#fff"/><path d="M240 519.5v49.3a20.7 20.7 0 0 0 3.2 11.07L280 638m-40-63.2L200 638m0-98.75h80" stroke="#5e5e5e" stroke-width="3" fill="none"/><path d="M200 486a6 6 0 0 1 6-6h68a6 6 0 0 1 6 6v168a6 6 0 0 1-6 6h-68a6 6 0 0 1-6-6z" fill="none"/><use xlink:href="#c" transform="matrix(1,0,0,1,120,638) translate(81.82098765432099 17.77777777777778)"/><use xlink:href="#d" transform="matrix(1,0,0,1,120,638) translate(58.42592592592591 44.44444444444444)"/><path d="M781.16 534.62c0 33.14-35.82 60-80 60s-80-26.86-80-60 35.82-60 80-60 80 26.86 80 60z" stroke="#5e5e5e" stroke-width="3" fill="#fff"/><use xlink:href="#e" transform="matrix(1,0,0,1,621.1612970021102,474.62103745952584) translate(27.07999999999999 63.15)"/><use xlink:href="#f" transform="matrix(1,0,0,1,621.1612970021102,474.62103745952584) translate(77.97999999999999 63.15)"/><path d="M1217.1 379.4c0 33.14-35.82 60-80 60-44.2 0-80-26.86-80-60 0-33.13 35.8-60 80-60 44.18 0 80 26.87 80 60z" stroke="#5e5e5e" stroke-width="3" fill="#fff"/><use xlink:href="#g" transform="matrix(1,0,0,1,1057.0967574947242,319.4043934361375) translate(18.654999999999994 51.9)"/><use xlink:href="#h" transform="matrix(1,0,0,1,1057.0967574947242,319.4043934361375) translate(73.50500000000001 51.9)"/><use xlink:href="#i" transform="matrix(1,0,0,1,1057.0967574947242,319.4043934361375) translate(45.505 73.5)"/><use xlink:href="#j" transform="matrix(1,0,0,1,1057.0967574947242,319.4043934361375) translate(70.505 73.5)"/><path d="M1306.43 581.56c0 43.32-60.43 78.44-134.98 78.44-74.54 0-134.97-35.12-134.97-78.44s60.43-78.44 134.97-78.44c74.55 0 134.98 35.12 134.98 78.44z" stroke="#5e5e5e" stroke-width="3" fill="#fff"/><use xlink:href="#k" transform="matrix(1,0,0,1,1036.4806329867686,503.1227697661318) translate(31.20499999999998 58.55625)"/><use xlink:href="#l" transform="matrix(1,0,0,1,1036.4806329867686,503.1227697661318) translate(106.10499999999999 58.55625)"/><use xlink:href="#m" transform="matrix(1,0,0,1,1036.4806329867686,503.1227697661318) translate(173.90500000000003 58.55625)"/><use xlink:href="#n" transform="matrix(1,0,0,1,1036.4806329867686,503.1227697661318) translate(188.90500000000003 58.55625)"/><use xlink:href="#o" transform="matrix(1,0,0,1,1036.4806329867686,503.1227697661318) translate(59.57999999999999 80.15625)"/><use xlink:href="#p" transform="matrix(1,0,0,1,1036.4806329867686,503.1227697661318) translate(130.48000000000002 80.15625)"/><use xlink:href="#q" transform="matrix(1,0,0,1,1036.4806329867686,503.1227697661318) translate(155.48000000000002 80.15625)"/><use xlink:href="#r" transform="matrix(1,0,0,1,1036.4806329867686,503.1227697661318) translate(63.13000000000001 101.75625)"/><path d="M784.13 503.55l-8.8 3.98-.82-1.82 8.8-3.97zm26.38-11.96l-17.58 7.96-.82-1.82 17.6-7.97zm26.4-11.97l-17.6 7.97-.82-1.82 17.6-7.97zm26.38-11.96l-17.6 7.98-.82-1.83 17.6-7.97zm52.5-24.52h-3.25l2.68-1.2zm26.64-11.35l-17.6 7.97-.8-1.82 17.58-7.97zm26.4-11.96l-17.6 7.97-.83-1.8 17.58-7.98zm26.37-11.96l-17.6 7.98-.83-1.83 17.6-7.97zm26.37-11.95l-17.6 7.97-.8-1.82 17.57-7.98zm17.6-7.98l-8.8 4-.83-1.83 8.8-4z" stroke="#5e5e5e" stroke-width=".05" fill="#5e5e5e"/><path d="M775.36 507.52l-.78.36-1.14-1.68 1.1-.5z" fill="#5e5e5e"/><path d="M775.4 507.54l-.83.37-1.17-1.7 1.15-.53zm-1.93-1.33l1.12 1.64.73-.33-.8-1.76z" stroke="#5e5e5e" stroke-width=".05" fill="#5e5e5e"/><path d="M1041.57 390.85l-3.83-8.44 14.9-1.66z" fill="#5e5e5e"/><path d="M1041.23 392.52l-4.97-10.95 19.34-2.17zm-2-9.27l2.68 5.94 7.8-7.12z" stroke="#5e5e5e" stroke-width=".05" fill="#5e5e5e"/><g><use xlink:href="#s" transform="matrix(1,0,0,1,844.0596419504284,443.1540551057056) translate(0 14.222222222222223)"/></g><path d="M1034.18 580.4l-.37 1.96-9.7-1.8.37-1.97zm-19.43-3.62l-.36 1.97-19.44-3.62.36-1.96zm-29.5-3.45l-3.6-.67h3.72zm-116.2-23.66l-.38 1.97-19.43-3.62.37-1.96zm-29.16-5.42l-.37 1.97-19.43-3.62.36-1.96zm-29.15-5.42l-.37 1.97-9.7-1.8.35-1.98z" stroke="#5e5e5e" stroke-width=".05" fill="#5e5e5e"/><path d="M1035 580.55l-.02 1v1.02l-1.2-.2.38-1.98z" fill="#5e5e5e"/><path d="M1035.03 580.53l-.02 1.02.02 1.05-1.26-.22.38-2.02zm-1.2 1.8l1.14.2v-1.96l-.8-.15z" stroke="#5e5e5e" stroke-width=".05" fill="#5e5e5e"/><path d="M799.02 542.38l-13.18-7.17 14.88-1.94z" fill="#5e5e5e"/><path d="M799.75 543.92l-17.1-9.3 19.3-2.53zm-10.73-8.12l9.27 5.04 1.18-6.4z" stroke="#5e5e5e" stroke-width=".05" fill="#5e5e5e"/><g><use xlink:href="#t" transform="matrix(1,0,0,1,872.0730352567506,551.3230697688086) translate(0 14.222222222222223)"/></g><path d="M281 537.74l337.66-3.1" stroke="#5e5e5e" stroke-width="2" fill="none"/><path d="M281.03 538.74H280v-1h-3v-.96l4.02-.04zM619.66 534.6v.43l.03.6h-1.06v-2h1.05z" stroke="#5e5e5e" stroke-width=".05" fill="#5e5e5e"/><defs><path fill="#333" d="M30-248c87 1 191-15 191 75 0 78-77 80-158 76V0H30v-248zm33 125c57 0 124 11 124-50 0-59-68-47-124-48v98" id="u"/><path fill="#333" d="M100-194c62-1 85 37 85 99 1 63-27 99-86 99S16-35 15-95c0-66 28-99 85-99zM99-20c44 1 53-31 53-75 0-43-8-75-51-75s-53 32-53 75 10 74 51 75" id="v"/><path fill="#333" d="M117-194c89-4 53 116 60 194h-32v-121c0-31-8-49-39-48C34-167 62-67 57 0H25l-1-190h30c1 10-1 24 2 32 11-22 29-35 61-36" id="w"/><path fill="#333" d="M59-47c-2 24 18 29 38 22v24C64 9 27 4 27-40v-127H5v-23h24l9-43h21v43h35v23H59v120" id="x"/><g id="a"><use transform="matrix(0.06172839506172839,0,0,0.06172839506172839,0,0)" xlink:href="#u"/><use transform="matrix(0.06172839506172839,0,0,0.06172839506172839,14.814814814814813,0)" xlink:href="#v"/><use transform="matrix(0.06172839506172839,0,0,0.06172839506172839,27.160493827160494,0)" xlink:href="#w"/><use transform="matrix(0.06172839506172839,0,0,0.06172839506172839,39.50617283950617,0)" xlink:href="#x"/><use transform="matrix(0.06172839506172839,0,0,0.06172839506172839,45.67901234567901,0)" xlink:href="#v"/></g><path fill="#333" d="M63-220v92h138v28H63V0H30v-248h175v28H63" id="y"/><path fill="#333" d="M141-36C126-15 110 5 73 4 37 3 15-17 15-53c-1-64 63-63 125-63 3-35-9-54-41-54-24 1-41 7-42 31l-33-3c5-37 33-52 76-52 45 0 72 20 72 64v82c-1 20 7 32 28 27v20c-31 9-61-2-59-35zM48-53c0 20 12 33 32 33 41-3 63-29 60-74-43 2-92-5-92 41zm25-158c8-23 27-35 38-54h36v5l-58 49H73" id="z"/><path fill="#333" d="M96-169c-40 0-48 33-48 73s9 75 48 75c24 0 41-14 43-38l32 2c-6 37-31 61-74 61-59 0-76-41-82-99-10-93 101-131 147-64 4 7 5 14 7 22l-32 3c-4-21-16-35-41-35" id="A"/><path fill="#333" d="M24-231v-30h32v30H24zM24 0v-190h32V0H24" id="B"/><path fill="#333" d="M24 0v-261h32V0H24" id="C"/><g id="b"><use transform="matrix(0.06172839506172839,0,0,0.06172839506172839,0,0)" xlink:href="#y"/><use transform="matrix(0.06172839506172839,0,0,0.06172839506172839,13.518518518518517,0)" xlink:href="#z"/><use transform="matrix(0.06172839506172839,0,0,0.06172839506172839,25.864197530864196,0)" xlink:href="#A"/><use transform="matrix(0.06172839506172839,0,0,0.06172839506172839,36.9753086419753,0)" xlink:href="#B"/><use transform="matrix(0.06172839506172839,0,0,0.06172839506172839,41.85185185185185,0)" xlink:href="#C"/></g><path fill="#333" d="M232-93c-1 65-40 97-104 97C67 4 28-28 28-90v-158h33c8 89-33 224 67 224 102 0 64-133 71-224h33v155" id="D"/><path fill="#333" d="M135-143c-3-34-86-38-87 0 15 53 115 12 119 90S17 21 10-45l28-5c4 36 97 45 98 0-10-56-113-15-118-90-4-57 82-63 122-42 12 7 21 19 24 35" id="E"/><path fill="#333" d="M84 4C-5 8 30-112 23-190h32v120c0 31 7 50 39 49 72-2 45-101 50-169h31l1 190h-30c-1-10 1-25-2-33-11 22-28 36-60 37" id="F"/><path fill="#333" d="M114-163C36-179 61-72 57 0H25l-1-190h30c1 12-1 29 2 39 6-27 23-49 58-41v29" id="G"/><g id="c"><use transform="matrix(0.06172839506172839,0,0,0.06172839506172839,0,0)" xlink:href="#D"/><use transform="matrix(0.06172839506172839,0,0,0.06172839506172839,15.987654320987653,0)" xlink:href="#E"/><use transform="matrix(0.06172839506172839,0,0,0.06172839506172839,27.098765432098766,0)" xlink:href="#F"/><use transform="matrix(0.06172839506172839,0,0,0.06172839506172839,39.44444444444444,0)" xlink:href="#z"/><use transform="matrix(0.06172839506172839,0,0,0.06172839506172839,51.79012345679012,0)" xlink:href="#G"/><use transform="matrix(0.06172839506172839,0,0,0.06172839506172839,59.1358024691358,0)" xlink:href="#B"/><use transform="matrix(0.06172839506172839,0,0,0.06172839506172839,64.01234567901234,0)" xlink:href="#v"/></g><path fill="#333" d="M87 75C49 33 22-17 22-94c0-76 28-126 65-167h31c-38 41-64 92-64 168S80 34 118 75H87" id="H"/><path fill="#333" d="M101-234c-31-9-42 10-38 44h38v23H63V0H32v-167H5v-23h27c-7-52 17-82 69-68v24" id="I"/><path fill="#333" d="M33-261c38 41 65 92 65 168S71 34 33 75H2C39 34 66-17 66-93S39-220 2-261h31" id="J"/><g id="d"><use transform="matrix(0.06172839506172839,0,0,0.06172839506172839,0,0)" xlink:href="#H"/><use transform="matrix(0.06172839506172839,0,0,0.06172839506172839,7.345679012345679,0)" xlink:href="#I"/><use transform="matrix(0.06172839506172839,0,0,0.06172839506172839,13.518518518518519,0)" xlink:href="#F"/><use transform="matrix(0.06172839506172839,0,0,0.06172839506172839,25.864197530864196,0)" xlink:href="#w"/><use transform="matrix(0.06172839506172839,0,0,0.06172839506172839,38.20987654320987,0)" xlink:href="#A"/><use transform="matrix(0.06172839506172839,0,0,0.06172839506172839,49.32098765432099,0)" xlink:href="#B"/><use transform="matrix(0.06172839506172839,0,0,0.06172839506172839,54.19753086419753,0)" xlink:href="#v"/><use transform="matrix(0.06172839506172839,0,0,0.06172839506172839,66.54320987654322,0)" xlink:href="#w"/><use transform="matrix(0.06172839506172839,0,0,0.06172839506172839,78.8888888888889,0)" xlink:href="#z"/><use transform="matrix(0.06172839506172839,0,0,0.06172839506172839,91.23456790123458,0)" xlink:href="#G"/><use transform="matrix(0.06172839506172839,0,0,0.06172839506172839,98.58024691358027,0)" xlink:href="#B"/><use transform="matrix(0.06172839506172839,0,0,0.06172839506172839,103.45679012345681,0)" xlink:href="#v"/><use transform="matrix(0.06172839506172839,0,0,0.06172839506172839,115.8024691358025,0)" xlink:href="#J"/></g><path d="M143 4C61 4 22-44 18-125c-5-107 100-154 193-111 17 8 29 25 37 43l-32 9c-13-25-37-40-76-40-61 0-88 39-88 99 0 61 29 100 91 101 35 0 62-11 79-27v-45h-74v-28h105v86C228-13 192 4 143 4" id="K"/><path d="M100-194c63 0 86 42 84 106H49c0 40 14 67 53 68 26 1 43-12 49-29l28 8c-11 28-37 45-77 45C44 4 14-33 15-96c1-61 26-98 85-98zm52 81c6-60-76-77-97-28-3 7-6 17-6 28h103" id="L"/><path d="M114-163C36-179 61-72 57 0H25l-1-190h30c1 12-1 29 2 39 6-27 23-49 58-41v29" id="M"/><path d="M141-36C126-15 110 5 73 4 37 3 15-17 15-53c-1-64 63-63 125-63 3-35-9-54-41-54-24 1-41 7-42 31l-33-3c5-37 33-52 76-52 45 0 72 20 72 64v82c-1 20 7 32 28 27v20c-31 9-61-2-59-35zM48-53c0 20 12 33 32 33 41-3 63-29 60-74-43 2-92-5-92 41" id="N"/><g id="e"><use transform="matrix(0.05,0,0,0.05,0,0)" xlink:href="#K"/><use transform="matrix(0.05,0,0,0.05,14,0)" xlink:href="#L"/><use transform="matrix(0.05,0,0,0.05,24,0)" xlink:href="#M"/><use transform="matrix(0.05,0,0,0.05,29.950000000000003,0)" xlink:href="#N"/><use transform="matrix(0.05,0,0,0.05,39.95,0)" xlink:href="#M"/></g><path d="M141 0L90-78 38 0H4l68-98-65-92h35l48 74 47-74h35l-64 92 68 98h-35" id="O"/><path d="M59-47c-2 24 18 29 38 22v24C64 9 27 4 27-40v-127H5v-23h24l9-43h21v43h35v23H59v120" id="P"/><path d="M100-194c62-1 85 37 85 99 1 63-27 99-86 99S16-35 15-95c0-66 28-99 85-99zM99-20c44 1 53-31 53-75 0-43-8-75-51-75s-53 32-53 75 10 74 51 75" id="Q"/><g id="f"><use transform="matrix(0.05,0,0,0.05,0,0)" xlink:href="#L"/><use transform="matrix(0.05,0,0,0.05,10,0)" xlink:href="#O"/><use transform="matrix(0.05,0,0,0.05,19,0)" xlink:href="#P"/><use transform="matrix(0.05,0,0,0.05,24,0)" xlink:href="#M"/><use transform="matrix(0.05,0,0,0.05,29.950000000000003,0)" xlink:href="#N"/><use transform="matrix(0.05,0,0,0.05,39.95,0)" xlink:href="#P"/><use transform="matrix(0.05,0,0,0.05,44.95,0)" xlink:href="#Q"/></g><path d="M33 0v-248h34V0H33" id="R"/><path d="M117-194c89-4 53 116 60 194h-32v-121c0-31-8-49-39-48C34-167 62-67 57 0H25l-1-190h30c1 10-1 24 2 32 11-22 29-35 61-36" id="S"/><path d="M135-143c-3-34-86-38-87 0 15 53 115 12 119 90S17 21 10-45l28-5c4 36 97 45 98 0-10-56-113-15-118-90-4-57 82-63 122-42 12 7 21 19 24 35" id="T"/><path d="M24-231v-30h32v30H24zM24 0v-190h32V0H24" id="U"/><g id="g"><use transform="matrix(0.05,0,0,0.05,0,0)" xlink:href="#R"/><use transform="matrix(0.05,0,0,0.05,5,0)" xlink:href="#S"/><use transform="matrix(0.05,0,0,0.05,15,0)" xlink:href="#T"/><use transform="matrix(0.05,0,0,0.05,24,0)" xlink:href="#L"/><use transform="matrix(0.05,0,0,0.05,34,0)" xlink:href="#M"/><use transform="matrix(0.05,0,0,0.05,39.95,0)" xlink:href="#U"/><use transform="matrix(0.05,0,0,0.05,43.900000000000006,0)" xlink:href="#M"/></g><path d="M108 0H70L1-190h34L89-25l56-165h34" id="V"/><path d="M24 0v-261h32V0H24" id="W"/><g id="h"><use transform="matrix(0.05,0,0,0.05,0,0)" xlink:href="#U"/><use transform="matrix(0.05,0,0,0.05,3.95,0)" xlink:href="#S"/><use transform="matrix(0.05,0,0,0.05,13.949999999999998,0)" xlink:href="#P"/><use transform="matrix(0.05,0,0,0.05,18.95,0)" xlink:href="#L"/><use transform="matrix(0.05,0,0,0.05,28.950000000000003,0)" xlink:href="#M"/><use transform="matrix(0.05,0,0,0.05,34.9,0)" xlink:href="#V"/><use transform="matrix(0.05,0,0,0.05,43.9,0)" xlink:href="#N"/><use transform="matrix(0.05,0,0,0.05,53.900000000000006,0)" xlink:href="#W"/><use transform="matrix(0.05,0,0,0.05,57.85,0)" xlink:href="#Q"/></g><path d="M85-194c31 0 48 13 60 33l-1-100h32l1 261h-30c-2-10 0-23-3-31C134-8 116 4 85 4 32 4 16-35 15-94c0-66 23-100 70-100zm9 24c-40 0-46 34-46 75 0 40 6 74 45 74 42 0 51-32 51-76 0-42-9-74-50-73" id="X"/><g id="i"><use transform="matrix(0.05,0,0,0.05,0,0)" xlink:href="#X"/><use transform="matrix(0.05,0,0,0.05,10,0)" xlink:href="#L"/></g><g id="j"><use transform="matrix(0.05,0,0,0.05,0,0)" xlink:href="#X"/><use transform="matrix(0.05,0,0,0.05,10,0)" xlink:href="#N"/><use transform="matrix(0.05,0,0,0.05,20,0)" xlink:href="#P"/><use transform="matrix(0.05,0,0,0.05,25,0)" xlink:href="#N"/><use transform="matrix(0.05,0,0,0.05,35,0)" xlink:href="#T"/></g><path d="M30 0v-248h187v28H63v79h144v27H63v87h162V0H30" id="Y"/><path d="M96-169c-40 0-48 33-48 73s9 75 48 75c24 0 41-14 43-38l32 2c-6 37-31 61-74 61-59 0-76-41-82-99-10-93 101-131 147-64 4 7 5 14 7 22l-32 3c-4-21-16-35-41-35" id="Z"/><path d="M106-169C34-169 62-67 57 0H25v-261h32l-1 103c12-21 28-36 61-36 89 0 53 116 60 194h-32v-121c2-32-8-49-39-48" id="aa"/><g id="k"><use transform="matrix(0.05,0,0,0.05,0,0)" xlink:href="#Y"/><use transform="matrix(0.05,0,0,0.05,12,0)" xlink:href="#T"/><use transform="matrix(0.05,0,0,0.05,21,0)" xlink:href="#Z"/><use transform="matrix(0.05,0,0,0.05,30,0)" xlink:href="#Q"/><use transform="matrix(0.05,0,0,0.05,40,0)" xlink:href="#W"/><use transform="matrix(0.05,0,0,0.05,43.95,0)" xlink:href="#aa"/><use transform="matrix(0.05,0,0,0.05,53.95,0)" xlink:href="#L"/><use transform="matrix(0.05,0,0,0.05,63.95,0)" xlink:href="#M"/></g><path d="M100-194c63 0 86 42 84 106H49c0 40 14 67 53 68 26 1 43-12 49-29l28 8c-11 28-37 45-77 45C44 4 14-33 15-96c1-61 26-98 85-98zm52 81c6-60-76-77-97-28-3 7-6 17-6 28h103zm-74-98c8-23 27-35 38-54h36v5l-58 49H78" id="ab"/><g id="l"><use transform="matrix(0.05,0,0,0.05,0,0)" xlink:href="#Z"/><use transform="matrix(0.05,0,0,0.05,9,0)" xlink:href="#M"/><use transform="matrix(0.05,0,0,0.05,14.949999999999998,0)" xlink:href="#U"/><use transform="matrix(0.05,0,0,0.05,18.9,0)" xlink:href="#P"/><use transform="matrix(0.05,0,0,0.05,23.9,0)" xlink:href="#ab"/><use transform="matrix(0.05,0,0,0.05,33.9,0)" xlink:href="#M"/><use transform="matrix(0.05,0,0,0.05,39.85,0)" xlink:href="#U"/><use transform="matrix(0.05,0,0,0.05,43.800000000000004,0)" xlink:href="#Q"/><use transform="matrix(0.05,0,0,0.05,53.800000000000004,0)" xlink:href="#T"/></g><use transform="matrix(0.05,0,0,0.05,0,0)" xlink:href="#N" id="m"/><path d="M210-169c-67 3-38 105-44 169h-31v-121c0-29-5-50-35-48C34-165 62-65 56 0H25l-1-190h30c1 10-1 24 2 32 10-44 99-50 107 0 11-21 27-35 58-36 85-2 47 119 55 194h-31v-121c0-29-5-49-35-48" id="ac"/><g id="n"><use transform="matrix(0.05,0,0,0.05,0,0)" xlink:href="#T"/><use transform="matrix(0.05,0,0,0.05,9,0)" xlink:href="#L"/><use transform="matrix(0.05,0,0,0.05,19,0)" xlink:href="#M"/><use transform="matrix(0.05,0,0,0.05,24.95,0)" xlink:href="#L"/><use transform="matrix(0.05,0,0,0.05,34.95,0)" xlink:href="#ac"/></g><path d="M115-194c53 0 69 39 70 98 0 66-23 100-70 100C84 3 66-7 56-30L54 0H23l1-261h32v101c10-23 28-34 59-34zm-8 174c40 0 45-34 45-75 0-40-5-75-45-74-42 0-51 32-51 76 0 43 10 73 51 73" id="ad"/><g id="o"><use transform="matrix(0.05,0,0,0.05,0,0)" xlink:href="#L"/><use transform="matrix(0.05,0,0,0.05,10,0)" xlink:href="#O"/><use transform="matrix(0.05,0,0,0.05,19,0)" xlink:href="#U"/><use transform="matrix(0.05,0,0,0.05,22.95,0)" xlink:href="#ad"/><use transform="matrix(0.05,0,0,0.05,32.95,0)" xlink:href="#U"/><use transform="matrix(0.05,0,0,0.05,36.900000000000006,0)" xlink:href="#X"/><use transform="matrix(0.05,0,0,0.05,46.900000000000006,0)" xlink:href="#Q"/><use transform="matrix(0.05,0,0,0.05,56.900000000000006,0)" xlink:href="#T"/></g><g id="p"><use transform="matrix(0.05,0,0,0.05,0,0)" xlink:href="#S"/><use transform="matrix(0.05,0,0,0.05,10,0)" xlink:href="#Q"/></g><g id="q"><use transform="matrix(0.05,0,0,0.05,0,0)" xlink:href="#L"/><use transform="matrix(0.05,0,0,0.05,10,0)" xlink:href="#O"/><use transform="matrix(0.05,0,0,0.05,19,0)" xlink:href="#P"/><use transform="matrix(0.05,0,0,0.05,24,0)" xlink:href="#M"/><use transform="matrix(0.05,0,0,0.05,29.950000000000003,0)" xlink:href="#N"/><use transform="matrix(0.05,0,0,0.05,39.95,0)" xlink:href="#P"/><use transform="matrix(0.05,0,0,0.05,44.95,0)" xlink:href="#Q"/></g><path d="M87 75C49 33 22-17 22-94c0-76 28-126 65-167h31c-38 41-64 92-64 168S80 34 118 75H87" id="ae"/><path d="M68-38c1 34 0 65-14 84H32c9-13 17-26 17-46H33v-38h35" id="af"/><path d="M100-194c63 0 86 42 84 106H49c0 40 14 67 53 68 26 1 43-12 49-29l28 8c-11 28-37 45-77 45C44 4 14-33 15-96c1-61 26-98 85-98zm52 81c6-60-76-77-97-28-3 7-6 17-6 28h103zm-32-149c12 18 30 30 39 51-31 2-38-20-57-30-20 10-27 32-59 30 9-22 29-33 41-51h36" id="ag"/><path d="M33-261c38 41 65 92 65 168S71 34 33 75H2C39 34 66-17 66-93S39-220 2-261h31" id="ah"/><g id="r"><use transform="matrix(0.05,0,0,0.05,0,0)" xlink:href="#ae"/><use transform="matrix(0.05,0,0,0.05,5.95,0)" xlink:href="#X"/><use transform="matrix(0.05,0,0,0.05,15.949999999999998,0)" xlink:href="#U"/><use transform="matrix(0.05,0,0,0.05,19.9,0)" xlink:href="#N"/><use transform="matrix(0.05,0,0,0.05,29.899999999999995,0)" xlink:href="#af"/><use transform="matrix(0.05,0,0,0.05,34.9,0)" xlink:href="#T"/><use transform="matrix(0.05,0,0,0.05,43.9,0)" xlink:href="#L"/><use transform="matrix(0.05,0,0,0.05,53.900000000000006,0)" xlink:href="#ac"/><use transform="matrix(0.05,0,0,0.05,68.85,0)" xlink:href="#N"/><use transform="matrix(0.05,0,0,0.05,78.85,0)" xlink:href="#S"/><use transform="matrix(0.05,0,0,0.05,88.85,0)" xlink:href="#N"/><use transform="matrix(0.05,0,0,0.05,98.85,0)" xlink:href="#af"/><use transform="matrix(0.05,0,0,0.05,103.84999999999998,0)" xlink:href="#ac"/><use transform="matrix(0.05,0,0,0.05,118.80000000000001,0)" xlink:href="#ag"/><use transform="matrix(0.05,0,0,0.05,128.8,0)" xlink:href="#T"/><use transform="matrix(0.05,0,0,0.05,137.8,0)" xlink:href="#ah"/></g><path fill="#333" d="M15-91v-56l181-69v40L49-119l147 57v40" id="ai"/><path fill="#333" d="M25-224v-37h50v37H25zM25 0v-190h50V0H25" id="aj"/><path fill="#333" d="M135-194c87-1 58 113 63 194h-50c-7-57 23-157-34-157-59 0-34 97-39 157H25l-1-190h47c2 12-1 28 3 38 12-26 28-41 61-42" id="ak"/><path fill="#333" d="M190-63c-7 42-38 67-86 67-59 0-84-38-90-98-12-110 154-137 174-36l-49 2c-2-19-15-32-35-32-30 0-35 28-38 64-6 74 65 87 74 30" id="al"/><path fill="#333" d="M25 0v-261h50V0H25" id="am"/><path fill="#333" d="M85 4C-2 5 27-109 22-190h50c7 57-23 150 33 157 60-5 35-97 40-157h50l1 190h-47c-2-12 1-28-3-38-12 25-28 42-61 42" id="an"/><path fill="#333" d="M135-150c-39-12-60 13-60 57V0H25l-1-190h47c2 13-1 29 3 40 6-28 27-53 61-41v41" id="ao"/><path fill="#333" d="M15-22v-40l146-57-146-57v-40l181 69v56" id="ap"/><g id="s"><use transform="matrix(0.04938271604938272,0,0,0.04938271604938272,0,0)" xlink:href="#ai"/><use transform="matrix(0.04938271604938272,0,0,0.04938271604938272,10.370370370370372,0)" xlink:href="#ai"/><use transform="matrix(0.04938271604938272,0,0,0.04938271604938272,20.740740740740744,0)" xlink:href="#aj"/><use transform="matrix(0.04938271604938272,0,0,0.04938271604938272,25.679012345679016,0)" xlink:href="#ak"/><use transform="matrix(0.04938271604938272,0,0,0.04938271604938272,36.49382716049383,0)" xlink:href="#al"/><use transform="matrix(0.04938271604938272,0,0,0.04938271604938272,46.370370370370374,0)" xlink:href="#am"/><use transform="matrix(0.04938271604938272,0,0,0.04938271604938272,51.308641975308646,0)" xlink:href="#an"/><use transform="matrix(0.04938271604938272,0,0,0.04938271604938272,62.12345679012346,0)" xlink:href="#aj"/><use transform="matrix(0.04938271604938272,0,0,0.04938271604938272,67.06172839506173,0)" xlink:href="#ao"/><use transform="matrix(0.04938271604938272,0,0,0.04938271604938272,73.97530864197532,0)" xlink:href="#ap"/><use transform="matrix(0.04938271604938272,0,0,0.04938271604938272,84.34567901234568,0)" xlink:href="#ap"/></g><path fill="#333" d="M185-48c-13 30-37 53-82 52C43 2 14-33 14-96s30-98 90-98c62 0 83 45 84 108H66c0 31 8 55 39 56 18 0 30-7 34-22zm-45-69c5-46-57-63-70-21-2 6-4 13-4 21h74" id="aq"/><path fill="#333" d="M137-138c1-29-70-34-71-4 15 46 118 7 119 86 1 83-164 76-172 9l43-7c4 19 20 25 44 25 33 8 57-30 24-41C81-84 22-81 20-136c-2-80 154-74 161-7" id="ar"/><path fill="#333" d="M115-3C79 11 28 4 28-45v-112H4v-33h27l15-45h31v45h36v33H77v99c-1 23 16 31 38 25v30" id="as"/><path fill="#333" d="M88-194c31-1 46 15 58 34l-1-101h50l1 261h-48c-2-10 0-23-3-31C134-8 116 4 84 4 32 4 16-41 15-95c0-56 19-97 73-99zm17 164c33 0 40-30 41-66 1-37-9-64-41-64s-38 30-39 65c0 43 13 65 39 65" id="at"/><g id="t"><use transform="matrix(0.04938271604938272,0,0,0.04938271604938272,0,0)" xlink:href="#ai"/><use transform="matrix(0.04938271604938272,0,0,0.04938271604938272,10.370370370370372,0)" xlink:href="#ai"/><use transform="matrix(0.04938271604938272,0,0,0.04938271604938272,20.740740740740744,0)" xlink:href="#aq"/><use transform="matrix(0.04938271604938272,0,0,0.04938271604938272,30.617283950617285,0)" xlink:href="#ar"/><use transform="matrix(0.04938271604938272,0,0,0.04938271604938272,40.49382716049384,0)" xlink:href="#as"/><use transform="matrix(0.04938271604938272,0,0,0.04938271604938272,46.37037037037038,0)" xlink:href="#aq"/><use transform="matrix(0.04938271604938272,0,0,0.04938271604938272,56.24691358024693,0)" xlink:href="#ak"/><use transform="matrix(0.04938271604938272,0,0,0.04938271604938272,67.06172839506173,0)" xlink:href="#at"/><use transform="matrix(0.04938271604938272,0,0,0.04938271604938272,77.87654320987654,0)" xlink:href="#aq"/><use transform="matrix(0.04938271604938272,0,0,0.04938271604938272,87.75308641975309,0)" xlink:href="#ao"/><use transform="matrix(0.04938271604938272,0,0,0.04938271604938272,94.66666666666667,0)" xlink:href="#ap"/><use transform="matrix(0.04938271604938272,0,0,0.04938271604938272,105.03703703703705,0)" xlink:href="#ap"/></g></defs></g></svg>